HIERARCHY
ROOT pelvis
{
  OFFSET 0 100 0
  CHANNELS 6 Xposition Yposition Zposition Zrotation Xrotation Yrotation
  JOINT pelvis_right_femur
  {
    OFFSET -10.78128 -3.44521 -0.5502486
    CHANNELS 3 Zrotation Xrotation Yrotation
    JOINT right_femur_tibia
    {
      OFFSET -0.8047443 -44.0398 -0.1307829
      CHANNELS 3 Zrotation Xrotation Yrotation
      JOINT right_tibia_foot
      {
        OFFSET 3.006224 -47.83518 -5
        CHANNELS 3 Zrotation Xrotation Yrotation
        End Site
        {
          OFFSET 0 -5 15
        }
      }
    }
  }
  JOINT pelvis_left_femur
  {
    OFFSET 10.78128 -3.44521 -0.5502486
    CHANNELS 3 Zrotation Xrotation Yrotation
    JOINT left_femur_tibia
    {
      OFFSET 0.8047443 -44.0398 -0.1307829
      CHANNELS 3 Zrotation Xrotation Yrotation
      JOINT left_tibia_foot
      {
        OFFSET -4.370144 -48.10324 -4.275266
        CHANNELS 3 Zrotation Xrotation Yrotation
        End Site
        {
          OFFSET 0 -5 15
        }
      }
    }
  }
  JOINT pelvis_spine1
  {
    OFFSET 0 6.468898 -3.129235
    CHANNELS 3 Zrotation Xrotation Yrotation
    JOINT spine1
    {
      OFFSET 0 23.15396 4.99043
      CHANNELS 3 Zrotation Xrotation Yrotation
      JOINT spine2
      {
        OFFSET 0 20.79997 -5.064912
        CHANNELS 3 Zrotation Xrotation Yrotation
        JOINT neck
        {
          OFFSET 0 14.38658 9.616178
          CHANNELS 3 Zrotation Xrotation Yrotation
          End Site
          {
            OFFSET 0 20 0
          }
        }
      }
      JOINT right_manubrium
      {
        OFFSET -5.722621 16.35077 3.967754
        CHANNELS 3 Zrotation Xrotation Yrotation
        JOINT right_clavicle
        {
          OFFSET -13.16364 1.694482 -4.693211
          CHANNELS 3 Zrotation Xrotation Yrotation
          JOINT right_humerus
          {
            OFFSET -28.5034 -0.3100689 -2.792744
            CHANNELS 3 Zrotation Xrotation Yrotation
            JOINT right_radius
            {
              OFFSET -25.15693 0.02248979 -1.271978
              CHANNELS 3 Zrotation Xrotation Yrotation
              End Site
              {
                OFFSET -15 0 0
              }
            }
          }
        }
      }
      JOINT left_manubrium
      {
        OFFSET 5.722621 16.35077 3.967754
        CHANNELS 3 Zrotation Xrotation Yrotation
        JOINT left_clavicle
        {
          OFFSET 13.16364 1.694482 -4.693211
          CHANNELS 3 Zrotation Xrotation Yrotation
          JOINT left_humerus
          {
            OFFSET 29.39168 -1.063119 -2.237045
            CHANNELS 3 Zrotation Xrotation Yrotation
            JOINT left_radius
            {
              OFFSET 24.59957 -0.9528479 0.9047498
              CHANNELS 3 Zrotation Xrotation Yrotation
              End Site
              {
                OFFSET 15 -0 -0
              }
            }
          }
        }
      }
    }
  }
}
MOTION
Frames: 15
Frame Time: 0.0416666666667
-1077.372 97.64566 2394.712 -9.798743 -3.196562 -68.7624 7.615266 -6.394105 -1.66633 -0 13.74815 -0 -15.55266 0.3079081 -2.706451 -2.091235 0.5479774 -5.036286 -0 59.52184 -0 5.127511 -3.345721 13.81985 1.791618 -2.326856 6.052943 -0.1769936 16.14962 -6.890437 2.239214 21.31198 3.054713 0.2231221 -21.43345 6.340215 -6.280006 -25.08877 11.30374 99.53206 17.40419 -20.27563 -0 0 11.74223 -21.21918 10.78154 11.11211 1.68504 -26.33783 -8.872087 -86.55556 14.12553 22.52296 0 0 -27.63799 6.171896 12.58874 8.931013
-1082.447 98.68679 2396.692 -9.892514 -3.527487 -69.76827 7.209898 -1.559011 -0.9714066 -0 11.88964 -0 -14.45503 -1.018276 -2.810335 -1.153913 -4.711362 -4.834217 -0 58.36344 -0 3.942901 -2.730829 14.18758 1.952857 -2.191459 6.541604 -0.3349225 16.51165 -6.632413 2.29597 20.833 2.549545 -0.1400401 -21.27365 6.106386 -6.333301 -26.30442 11.26475 98.80198 17.77951 -18.50568 -0 0 14.44588 -21.18218 11.88105 11.66192 1.222772 -25.41434 -8.762862 -87.55781 13.69457 25.44078 0 0 -25.62945 5.199902 12.19231 10.04289
-1087.278 99.36112 2398.556 -9.592951 -3.607991 -70.62187 6.850137 2.54805 -0.4053739 -0 10.25795 -0 -13.5401 -2.851659 -2.551622 -0.06152941 -9.980309 -4.382089 -0 53.07527 -0 3.58646 -2.501899 14.9411 2.00893 -2.079671 7.01914 -0.4742826 16.64915 -6.32198 2.302096 20.29441 2.06409 -0.5469194 -21.15485 5.888797 -6.367053 -27.63979 11.14374 97.77613 18.25058 -16.34311 -0 0 17.57842 -21.14137 12.99679 12.41331 0.8569372 -24.26585 -8.459616 -88.64416 13.29841 28.56341 0 0 -23.40784 4.122797 11.69124 11.21337
-1091.934 99.48767 2400.391 -9.214257 -3.373218 -71.33021 6.726747 5.966673 -0.02765406 -0 9.354396 -0 -12.91309 -5.390291 -2.184035 1.331012 -14.61362 -3.560825 -0 44.4205 -0 3.793185 -2.396057 15.73868 1.946201 -2.044041 7.454936 -0.5730198 16.53148 -5.981855 2.24392 19.72173 1.644846 -0.9666754 -21.08515 5.698916 -6.363027 -29.03008 10.95773 96.44365 18.7232 -13.8801 -0 0 20.98924 -21.16215 14.07556 13.38633 0.6459969 -22.97159 -7.959116 -89.78595 12.94926 31.70824 0 0 -21.10428 3.03103 11.16095 12.32136
-1096.524 99.0433 2402.311 -8.877859 -2.805305 -71.95222 6.851071 8.756629 0.1883315 -0 9.420722 -0 -12.43769 -8.464446 -1.922433 2.917511 -17.97382 -2.518821 -0 33.8564 -0 4.205918 -2.158565 16.255 1.768867 -2.116531 7.817491 -0.6187542 16.16991 -5.634091 2.123724 19.16486 1.337358 -1.354886 -21.07874 5.552111 -6.30819 -30.38084 10.73372 94.8641 19.08892 -11.28186 -0 0 24.42303 -21.30588 15.02886 14.55645 0.6212001 -21.63778 -7.298828 -90.95352 12.68251 34.65657 0 0 -18.83045 2.025418 10.68411 13.25593
-1101.185 98.18031 2404.426 -8.531608 -2.01937 -72.55691 6.990047 10.95622 0.3579383 -0 10.50847 -0 -11.9238 -11.53315 -1.841119 4.265805 -19.68654 -1.646638 -0 23.4241 -0 4.538552 -1.695407 16.34727 1.502647 -2.288108 8.082658 -0.6164293 15.61906 -5.292811 1.961498 18.69197 1.176145 -1.660743 -21.15229 5.463819 -6.205557 -31.57788 10.50051 93.17886 19.27086 -8.770455 -0 0 27.5484 -21.5997 15.73543 15.83731 0.7767806 -20.37706 -6.552539 -92.11615 12.54587 37.19514 0 0 -16.6647 1.194754 10.32081 13.9482
-1106.054 97.15374 2406.812 -8.097794 -1.267373 -73.19381 6.782478 12.7886 0.5775957 -0 12.37708 -0 -11.2081 -13.93211 -1.860953 4.855906 -19.90224 -1.402962 -0 15.1687 -0 4.42081 -1.184547 16.16159 1.191772 -2.507986 8.240874 -0.5868756 14.9681 -4.963893 1.78983 18.37145 1.172289 -1.84176 -21.31112 5.442728 -6.074414 -32.50945 10.2832 91.57973 19.25396 -6.578197 -0 0 30.03501 -22.0181 16.08339 17.08812 1.07156 -19.28635 -5.814274 -93.24007 12.57717 39.16338 0 0 -14.65535 0.5967668 10.09624 14.38373
-1111.241 96.19841 2409.483 -7.620011 -0.8325994 -73.88415 5.967394 14.71772 0.7844104 -0 14.62091 -0 -10.35234 -15.14617 -1.801377 4.412739 -19.2656 -2.133629 -0 10.26465 -0 3.471514 -0.9902718 16.12866 0.8849897 -2.707014 8.299206 -0.5558239 14.31577 -4.650431 1.642159 18.24557 1.305371 -1.881632 -21.53639 5.485531 -5.938567 -33.10066 10.09968 90.23885 19.08433 -4.8746 -0 0 31.66756 -22.49045 16.03184 18.15776 1.441938 -18.42406 -5.170547 -94.28582 12.78489 40.49343 0 0 -12.83345 0.2437045 10.00451 14.59556
-1116.793 95.45896 2412.386 -7.256432 -0.897806 -74.60994 4.510882 17.11437 0.8016827 -0 17.0763 -0 -9.71005 -14.82824 -1.466199 2.993439 -18.46387 -3.9603 -0 8.655907 -0 1.647621 -1.417208 16.6598 0.6178486 -2.831488 8.275673 -0.5406821 13.73908 -4.358554 1.540433 18.31387 1.530289 -1.796843 -21.78809 5.577927 -5.812191 -33.33798 9.95935 89.24708 18.83674 -3.717033 -0 0 32.41749 -22.93484 15.63772 18.94285 1.823447 -17.80121 -4.674652 -95.21061 13.14607 41.21475 0 0 -11.22635 0.1052419 10.0227 14.64023
-1122.697 95.01555 2415.426 -7.137493 -1.47628 -75.29908 2.583472 19.83811 0.542323 -0 20.07353 -0 -9.663558 -12.66203 -0.7184093 0.8611864 -17.75162 -6.692791 -0 9.480142 -0 -0.5595421 -2.505504 17.79702 0.4055188 -2.857927 8.189089 -0.5459881 13.27724 -4.097483 1.491455 18.54472 1.798563 -1.62274 -22.02577 5.702515 -5.697804 -33.25588 9.863663 88.61369 18.57687 -3.073112 -0 0 32.39371 -23.28968 15.01168 19.40802 2.169596 -17.39672 -4.342406 -95.9769 13.62566 41.41004 0 0 -9.862184 0.1331213 10.12359 14.57103
-1128.877 94.94176 2418.499 -7.282821 -2.424265 -75.82797 0.5012509 22.13716 0.08773078 -0 24.34135 -0 -10.39484 -8.392739 0.4622264 -1.605783 -16.8632 -9.809719 -0 11.69351 -0 -2.327047 -4.005156 19.21865 0.2482134 -2.780679 8.052072 -0.5682155 12.9355 -3.875473 1.49223 18.90252 2.076615 -1.393302 -22.22791 5.847205 -5.597339 -32.89823 9.80596 88.31452 18.34877 -2.884635 -0 0 31.72632 -23.51591 14.24529 19.5563 2.457097 -17.18094 -4.166342 -96.55686 14.20063 41.15673 0 0 -8.772011 0.2852148 10.27707 14.42773
-1135.195 95.32777 2421.511 -7.625341 -3.477513 -76.05191 -1.302115 22.86293 -0.4081161 -0 30.62589 -0 -11.85769 -2.153172 1.923607 -3.917205 -15.24908 -12.56458 -0 14.36536 -0 -2.936955 -5.526866 20.47617 0.1397124 -2.595178 7.870333 -0.6009349 12.69707 -3.699189 1.536383 19.36304 2.348304 -1.133237 -22.39471 6.007956 -5.522648 -32.29201 9.771686 88.33509 18.18326 -3.114184 -0 0 30.49532 -23.58013 13.37709 19.39068 2.678712 -17.13005 -4.130783 -96.92375 14.86911 40.49366 0 0 -8.003293 0.5313663 10.44422 14.24218
-1141.435 96.24184 2424.369 -8.05381 -4.296264 -75.86362 -2.352419 20.91818 -0.8382726 -0 38.96987 -0 -13.7665 5.053638 3.297958 -5.558967 -12.4254 -14.2744 -0 16.67192 -0 -2.23043 -6.814817 21.17788 0.07274028 -2.296703 7.646141 -0.635579 12.53467 -3.578215 1.616274 19.90771 2.606645 -0.8628401 -22.53921 6.185743 -5.496044 -31.45181 9.741469 88.68196 18.10485 -3.753923 -0 0 28.74159 -23.44607 12.41002 18.90399 2.833133 -17.23091 -4.218513 -97.03856 15.63926 39.42398 0 0 -7.636899 0.8471447 10.57444 14.04469
-1147.334 97.62804 2426.988 -8.449148 -4.594851 -75.2631 -2.396053 15.9659 -1.184567 -0 47.8346 -0 -15.58356 11.2453 4.066279 -6.260466 -8.35146 -14.77195 -0 17.88377 -0 -0.846238 -7.987545 21.13137 0.04164704 -1.896313 7.382498 -0.6605417 12.42328 -3.529745 1.721489 20.50671 2.845629 -0.6036865 -22.67632 6.380696 -5.53854 -30.40706 9.699358 89.36481 18.1248 -4.806714 -0 0 26.52695 -23.09154 11.35631 18.10255 2.919446 -17.48311 -4.412065 -96.84769 16.50143 37.94367 0 0 -7.781247 1.211894 10.61683 13.85653
-1152.684 99.21912 2429.321 -8.731681 -4.350018 -74.38374 -1.670471 8.939969 -1.507031 -0 54.18842 -0 -16.7554 14.43906 3.903125 -6.172416 -3.61567 -14.56088 -0 17.55089 -0 0.19758 -9.418681 20.47313 0.04334507 -1.439797 7.084357 -0.6636257 12.35533 -3.576185 1.837912 21.10943 3.059432 -0.3742167 -22.81404 6.586982 -5.649657 -29.22569 9.644695 90.36377 18.2254 -6.25516 -0 0 23.98224 -22.54529 10.27575 17.04341 2.939517 -17.89978 -4.695745 -96.30303 17.39886 36.07442 0 0 -8.523693 1.62104 10.55273 13.66461
